<svg width="60" height="26" viewBox="0 0 60 26" fill="none" xmlns="http://www.w3.org/2000/svg">
<rect width="60" height="26" rx="4" fill="#ED1C24" fill-opacity="0.1"/>
<path d="M13 15.1667C12.8733 15.1667 12.7467 15.12 12.6467 15.02C12.4533 14.8267 12.4533 14.5067 12.6467 14.3133L14.78 12.18C14.8867 12.0733 15.0267 12.02 15.18 12.0333C15.3267 12.0467 15.46 12.1267 15.5467 12.2533L16.2733 13.3467L18.64 10.98C18.8333 10.7867 19.1533 10.7867 19.3467 10.98C19.54 11.1733 19.54 11.4933 19.3467 11.6867L16.5467 14.4867C16.44 14.5933 16.3 14.6467 16.1467 14.6333C16 14.62 15.8667 14.54 15.78 14.4133L15.0533 13.32L13.3533 15.02C13.2533 15.12 13.1267 15.1667 13 15.1667Z" fill="#ED1C24"/>
<path d="M19 13.1667C18.7267 13.1667 18.5 12.94 18.5 12.6667V11.8333H17.6667C17.3933 11.8333 17.1667 11.6067 17.1667 11.3333C17.1667 11.06 17.3933 10.8333 17.6667 10.8333H19C19.2733 10.8333 19.5 11.06 19.5 11.3333V12.6667C19.5 12.94 19.2733 13.1667 19 13.1667Z" fill="#ED1C24"/>
<path d="M18 20.1667H14C10.38 20.1667 8.83334 18.62 8.83334 15V11C8.83334 7.38001 10.38 5.83334 14 5.83334H18C21.62 5.83334 23.1667 7.38001 23.1667 11V15C23.1667 18.62 21.62 20.1667 18 20.1667ZM14 6.83334C10.9267 6.83334 9.83334 7.92668 9.83334 11V15C9.83334 18.0733 10.9267 19.1667 14 19.1667H18C21.0733 19.1667 22.1667 18.0733 22.1667 15V11C22.1667 7.92668 21.0733 6.83334 18 6.83334H14Z" fill="#ED1C24"/>
<path d="M28.612 16.124C29.628 15.308 30.424 14.64 31 14.12C31.576 13.592 32.06 13.044 32.452 12.476C32.852 11.9 33.052 11.336 33.052 10.784C33.052 10.264 32.924 9.856 32.668 9.56C32.42 9.256 32.016 9.104 31.456 9.104C30.912 9.104 30.488 9.276 30.184 9.62C29.888 9.956 29.728 10.408 29.704 10.976H28.648C28.68 10.08 28.952 9.388 29.464 8.9C29.976 8.412 30.636 8.168 31.444 8.168C32.268 8.168 32.92 8.396 33.4 8.852C33.888 9.308 34.132 9.936 34.132 10.736C34.132 11.4 33.932 12.048 33.532 12.68C33.14 13.304 32.692 13.856 32.188 14.336C31.684 14.808 31.04 15.36 30.256 15.992H34.384V16.904H28.612V16.124ZM35.6463 12.572C35.6463 11.196 35.8703 10.124 36.3183 9.356C36.7663 8.58 37.5503 8.192 38.6703 8.192C39.7823 8.192 40.5623 8.58 41.0103 9.356C41.4583 10.124 41.6823 11.196 41.6823 12.572C41.6823 13.972 41.4583 15.06 41.0103 15.836C40.5623 16.612 39.7823 17 38.6703 17C37.5503 17 36.7663 16.612 36.3183 15.836C35.8703 15.06 35.6463 13.972 35.6463 12.572ZM40.6023 12.572C40.6023 11.876 40.5543 11.288 40.4583 10.808C40.3703 10.32 40.1823 9.928 39.8943 9.632C39.6143 9.336 39.2063 9.188 38.6703 9.188C38.1263 9.188 37.7103 9.336 37.4223 9.632C37.1423 9.928 36.9543 10.32 36.8583 10.808C36.7703 11.288 36.7263 11.876 36.7263 12.572C36.7263 13.292 36.7703 13.896 36.8583 14.384C36.9543 14.872 37.1423 15.264 37.4223 15.56C37.7103 15.856 38.1263 16.004 38.6703 16.004C39.2063 16.004 39.6143 15.856 39.8943 15.56C40.1823 15.264 40.3703 14.872 40.4583 14.384C40.5543 13.896 40.6023 13.292 40.6023 12.572ZM42.9415 10.28C42.9415 9.736 43.1055 9.304 43.4335 8.984C43.7615 8.656 44.1815 8.492 44.6935 8.492C45.2055 8.492 45.6255 8.656 45.9535 8.984C46.2815 9.304 46.4455 9.736 46.4455 10.28C46.4455 10.832 46.2815 11.272 45.9535 11.6C45.6255 11.92 45.2055 12.08 44.6935 12.08C44.1815 12.08 43.7615 11.92 43.4335 11.6C43.1055 11.272 42.9415 10.832 42.9415 10.28ZM49.9495 8.624L45.0895 17H44.0095L48.8695 8.624H49.9495ZM44.6935 9.164C44.4215 9.164 44.2055 9.26 44.0455 9.452C43.8935 9.636 43.8175 9.912 43.8175 10.28C43.8175 10.648 43.8935 10.928 44.0455 11.12C44.2055 11.312 44.4215 11.408 44.6935 11.408C44.9655 11.408 45.1815 11.312 45.3415 11.12C45.5015 10.92 45.5815 10.64 45.5815 10.28C45.5815 9.912 45.5015 9.636 45.3415 9.452C45.1815 9.26 44.9655 9.164 44.6935 9.164ZM47.5375 15.344C47.5375 14.792 47.7015 14.356 48.0295 14.036C48.3575 13.708 48.7775 13.544 49.2895 13.544C49.8015 13.544 50.2175 13.708 50.5375 14.036C50.8655 14.356 51.0295 14.792 51.0295 15.344C51.0295 15.888 50.8655 16.324 50.5375 16.652C50.2175 16.98 49.8015 17.144 49.2895 17.144C48.7775 17.144 48.3575 16.984 48.0295 16.664C47.7015 16.336 47.5375 15.896 47.5375 15.344ZM49.2775 14.228C49.0055 14.228 48.7895 14.324 48.6295 14.516C48.4695 14.7 48.3895 14.976 48.3895 15.344C48.3895 15.704 48.4695 15.98 48.6295 16.172C48.7895 16.356 49.0055 16.448 49.2775 16.448C49.5495 16.448 49.7655 16.356 49.9255 16.172C50.0855 15.98 50.1655 15.704 50.1655 15.344C50.1655 14.976 50.0855 14.7 49.9255 14.516C49.7655 14.324 49.5495 14.228 49.2775 14.228Z" fill="#ED1C24"/>
</svg>
